#!OML:ASF H:\IndianDance\Patient Classification 1\Patient 1\Session 1\dancer.ASF
:FULLY-SPECIFIED
:DEGREES
2819
root 33.2703 15.1726 0.398808 179.484 -74.1501 -166.128
lowerback 0.313163 -3.24262 -3.15839
upperback -7.45629 -4.66341 1.68503
thorax -7.595 -2.15105 3.8547
lowerneck -19.961 2.53679 1.36425
upperneck 23.0407 -0.655623 11.8966
head 10.8481 1.10509 3.96487
rclavicle 9.34288e-015 3.97569e-016
rhumerus -17.8654 34.1005 -40.4367
rradius 108.568
rwrist -41.7636
rhand -9.88854 3.02352
rfingers 7.12502
rthumb 16.091 -26.3284
lclavicle 9.34288e-015 3.97569e-016
lhumerus 22.2219 -48.4473 5.24349
lradius 104.385
lwrist 11.3753
lhand -26.0274 365.364
lfingers 7.12502
lthumb 0.519294 395.343
rfemur -208.066 182.96 202.376
rtibia 42.8546
rfoot -23.1543 -369.168
rtoes -9.44888
lfemur -14.6712 29.8978 -28.9397
ltibia 36.7819
lfoot -35.6781 32.0396
ltoes 20.0523
2820
root 33.2206 15.1688 0.402354 180.32 -72.5196 -166.819
lowerback 0.233149 -3.36577 -3.14993
upperback -7.51337 -4.83191 1.78988
thorax -7.58832 -2.23573 3.96681
lowerneck -19.9434 2.72808 1.49603
upperneck 23.0716 -0.389129 11.73
head 10.8373 1.21725 3.92041
rclavicle 2.4699e-014 9.14409e-015
rhumerus -19.3303 32.7461 -41.7312
rradius 108.505
rwrist -44.2089
rhand -10.3089 2.15362
rfingers 7.12502
rthumb 15.6861 -27.2306
lclavicle 2.4699e-014 9.14409e-015
lhumerus 22.2499 -49.5015 5.37173
lradius 105.637
lwrist 10.364
lhand -27.0717 363.584
lfingers 7.12502
lthumb -0.489316 393.563
rfemur -208.218 182.443 202.315
rtibia 42.8764
rfoot -23.3423 -368.394
rtoes -9.45646
lfemur -14.7658 30.3419 -29.2123
ltibia 36.8592
lfoot -36.3222 32.4011
ltoes 20.8821
2821
root 33.1672 15.1651 0.403985 180.926 -70.9619 -167.256
lowerback 0.116665 -3.49631 -3.11303
upperback -7.57958 -5.00836 1.91651
thorax -7.5694 -2.32644 4.08369
lowerneck -19.9301 2.92855 1.6435
upperneck 23.124 -0.103193 11.5183
head 10.8347 1.33568 3.86074
rclavicle 1.20886e-013 1.63003e-014
rhumerus -20.7028 31.3493 -42.8865
rradius 108.356
rwrist -46.838
rhand -10.627 1.19747
rfingers 7.12502
rthumb 15.3798 -28.2105
lclavicle 1.20886e-013 1.63003e-014
lhumerus 22.2761 -50.5843 5.54401
lradius 106.839
lwrist 9.47509
lhand -28.1761 361.997
lfingers 7.12502
lthumb -1.556 391.971
rfemur -208.352 181.904 202.279
rtibia 42.8686
rfoot -23.5132 -367.617
rtoes -9.43791
lfemur -14.8543 30.707 -29.4401
ltibia 36.9381
lfoot -36.9645 32.6924
ltoes 21.6842
2822
root 33.1104 15.1607 0.403523 181.361 -69.4675 -167.503
lowerback -0.0239565 -3.62963 -3.05215
upperback -7.65812 -5.18747 2.0671
thorax -7.54889 -2.41995 4.21087
lowerneck -19.9064 3.14036 1.79521
upperneck 23.1898 0.20669 11.276
head 10.8345 1.46234 3.79301
rclavicle 3.01159e-014 3.97569e-015
rhumerus -21.977 29.9167 -43.8952
rradius 108.114
rwrist -49.6527
rhand -10.8456 0.152012
rfingers 7.12502
rthumb 15.1693 -29.272
lclavicle 3.01159e-014 3.97569e-015
lhumerus 22.298 -51.6799 5.78235
lradius 107.956
lwrist 8.65732
lhand -29.2728 360.337
lfingers 7.12502
lthumb -2.61522 390.301
rfemur -208.472 181.329 202.271
rtibia 42.8447
rfoot -23.664 -366.864
rtoes -9.39814
lfemur -14.9303 30.9922 -29.6149
ltibia 37.0327
lfoot -37.5907 32.9097
ltoes 22.4571
2823
root 33.0504 15.1555 0.400918 181.678 -68.0265 -167.621
lowerback -0.193247 -3.76083 -2.97655
upperback -7.73384 -5.36236 2.23488
thorax -7.50817 -2.51291 4.34444
lowerneck -19.867 3.36275 1.95673
upperneck 23.2388 0.53752 11.0169
head 10.8254 1.59705 3.7195
rclavicle 1.74185e-014 -5.1684e-015
rhumerus -23.1443 28.421 -44.7677
rradius 107.769
rwrist -52.6389
rhand -10.9788 -1.00389
rfingers 7.12502
rthumb 15.0409 -30.4375
lclavicle 1.74185e-014 -5.1684e-015
lhumerus 22.3273 -52.7589 6.07531
lradius 108.976
lwrist 7.89928
lhand -30.3364 358.588
lfingers 7.12502
lthumb -3.64235 388.537
rfemur -208.58 180.727 202.289
rtibia 42.8213
rfoot -23.7961 -366.16
rtoes -9.35187
lfemur -14.9879 31.2077 -29.7361
ltibia 37.1591
lfoot -38.1483 33.0746
ltoes 23.1229
2824
root 32.9879 15.1488 0.39613 181.918 -66.6248 -167.66
lowerback -0.377316 -3.88481 -2.89955
upperback -7.80677 -5.52743 2.41555
thorax -7.4552 -2.60149 4.48806
lowerneck -19.831 3.60033 2.13968
upperneck 23.2896 0.888947 10.7388
head 10.8185 1.74136 3.63884
rclavicle 7.14134e-014 -1.07344e-014
rhumerus -24.2074 26.8602 -45.5152
rradius 107.321
rwrist -55.7904
rhand -11.0951 -2.26253
rfingers 7.12502
rthumb 14.9289 -31.7045
lclavicle 7.14134e-014 -1.07344e-014
lhumerus 22.3627 -53.8202 6.41853
lradius 109.904
lwrist 7.19155
lhand -31.3848 356.693
lfingers 7.12502
lthumb -4.65467 386.622
rfemur -208.681 180.131 202.339
rtibia 42.8129
rfoot -23.9045 -365.521
rtoes -9.27565
lfemur -15.023 31.3683 -29.8056
ltibia 37.3328
lfoot -38.5981 33.194
ltoes 23.661
2825
root 32.9231 15.1406 0.389295 182.108 -65.2539 -167.648
lowerback -0.568354 -4.00135 -2.82982
upperback -7.87598 -5.68308 2.606
thorax -7.393 -2.68528 4.64387
lowerneck -19.7858 3.85648 2.34267
upperneck 23.3299 1.26586 10.4497
head 10.8069 1.89767 3.55409
rclavicle -6.38347e-014 -9.14409e-015
rhumerus -25.1622 25.2507 -46.1439
rradius 106.774
rwrist -59.1188
rhand -11.1969 -3.60554
rfingers 7.12502
rthumb 14.8308 -33.0548
lclavicle -6.38347e-014 -9.14409e-015
lhumerus 22.4072 -54.8595 6.8
lradius 110.735
lwrist 6.56551
lhand -32.4554 354.656
lfingers 7.12502
lthumb -5.68844 384.56
rfemur -208.78 179.568 202.424
rtibia 42.8338
rfoot -23.9919 -364.949
rtoes -9.04816
lfemur -15.0429 31.4875 -29.8275
ltibia 37.5706
lfoot -38.8721 33.2939
ltoes 24.0109
2826
root 32.8566 15.1307 0.380651 182.255 -63.893 -167.604
lowerback -0.755741 -4.10531 -2.76755
upperback -7.93942 -5.82267 2.80073
thorax -7.32663 -2.76088 4.80686
lowerneck -19.7279 4.13575 2.57348
upperneck 23.356 1.6708 10.1551
head 10.7892 2.06824 3.46604
rclavicle -3.36692e-014 1.19271e-014
rhumerus -26.0122 23.6034 -46.6738
rradius 106.13
rwrist -62.6377
rhand -11.3487 -5.00937
rfingers 7.12502
rthumb 14.6845 -34.4693
lclavicle -3.36692e-014 1.19271e-014
lhumerus 22.4171 -55.8776 7.24128
lradius 111.49
lwrist 6.02219
lhand -33.5338 352.464
lfingers 7.12502
lthumb -6.72952 382.337
rfemur -208.875 179.066 202.552
rtibia 42.8937
rfoot -24.0573 -364.458
rtoes -8.6362
lfemur -15.0493 31.597 -29.8008
ltibia 37.8907
lfoot -38.9529 33.377
ltoes 24.1749
2827
root 32.7889 15.1188 0.370566 182.383 -62.5302 -167.544
lowerback -0.941112 -4.19533 -2.71332
upperback -7.99605 -5.94454 2.99455
thorax -7.25464 -2.82762 4.97171
lowerneck -19.6622 4.44248 2.8348
upperneck 23.3668 2.10779 9.85843
head 10.7663 2.25572 3.37628
rclavicle -6.27911e-014 -9.54166e-015
rhumerus -26.7479 21.9277 -47.1214
rradius 105.391
rwrist -66.355
rhand -11.6379 -6.44816
rfingers 7.12502
rthumb 14.4059 -35.9282
lclavicle -6.27911e-014 -9.54166e-015
lhumerus 22.4093 -56.855 7.71858
lradius 112.174
lwrist 5.63362
lhand -34.6061 350.163
lfingers 7.12502
lthumb -7.76462 380.001
rfemur -208.977 178.652 202.728
rtibia 43.0008
rfoot -24.1056 -364.049
rtoes -8.04758
lfemur -15.0664 31.7155 -29.7385
ltibia 38.314
lfoot -38.8263 33.4503
ltoes 24.1594
